<svg xmlns="http://www.w3.org/2000/svg" version="1.1" xmlns:xlink="http://www.w3.org/1999/xlink" xmlns:svgjs="http://svgjs.dev/svgjs" width="1440" height="560" preserveAspectRatio="none" viewBox="0 0 1440 560">
    <g mask="url(&quot;#SvgjsMask1084&quot;)" fill="none">
        <rect width="1440" height="560" x="0" y="0" fill="rgba(71, 70, 74, 1)"></rect>
        <path d="M0,561.677C104.327,548.325,194.462,496.635,286.782,446.241C386.289,391.924,515.164,359.873,560.252,255.858C605.309,151.913,557.297,30.264,512.133,-73.634C474.19,-160.922,376.245,-201.688,326.175,-282.632C261.75,-386.784,289.956,-558.444,179.511,-611.359C73.809,-662.001,-44.096,-561.032,-149.972,-510.756C-241.085,-467.49,-319.435,-409.687,-392.226,-339.866C-471.899,-263.443,-561.614,-191.029,-593.489,-85.331C-627.664,27.994,-619.33,152.784,-573.73,262.014C-527.336,373.146,-444.93,470.474,-338.186,526.227C-235.642,579.787,-114.753,576.364,0,561.677" fill="#3f3e42"></path>
        <path d="M1440 1129.9180000000001C1543.889 1111.048 1588.53 986.323 1679.124 932.085 1774.286 875.1120000000001 1925.086 902.973 1980.011 806.615 2034.088 711.744 1946.69 597.473 1931.495 489.334 1916.2359999999999 380.741 1961.404 253.29399999999998 1890.507 169.63400000000001 1819.617 85.983 1686.387 109.981 1581.884 76.786 1474.315 42.61699999999996 1375.558-60.07899999999995 1267.247-28.34299999999996 1158.94 3.3909999999999627 1111.174 129.825 1059.113 229.95999999999998 1016.1569999999999 312.58299999999997 1021.475 406.793 994.656 495.969 961.625 605.8 853.765 703.393 883.412 814.185 912.767 923.886 1038.897 974.4 1137.672 1030.432 1231.858 1083.8609999999999 1333.458 1149.27 1440 1129.9180000000001" fill="#4f4e52"></path>
    </g>
    <defs>
        <mask id="SvgjsMask1084">
            <rect width="1440" height="560" fill="#ffffff"></rect>
        </mask>
    </defs>
</svg>