<!--?xml version="1.0" standalone="no"?-->              <svg id="sw-js-blob-svg" viewBox="0 0 100 100" xmlns="http://www.w3.org/2000/svg">                    <defs>                         <linearGradient id="sw-gradient" x1="0" x2="1" y1="1" y2="0">                            <stop id="stop1" stop-color="rgba(255, 255, 255, 1)" offset="0%"></stop>                            <stop id="stop2" stop-color="rgba(255, 255, 255, 1)" offset="100%"></stop>                        </linearGradient>                    </defs>                <path fill="url(#sw-gradient)" d="M19,-25.8C25.9,-21.1,33.6,-17.3,37.7,-10.8C41.9,-4.3,42.5,4.9,39.9,13C37.3,21.2,31.6,28.4,24.4,33.1C17.3,37.7,8.6,39.7,-0.3,40.2C-9.3,40.6,-18.6,39.5,-24,34.3C-29.4,29.1,-30.9,19.8,-32,11.6C-33.1,3.3,-33.7,-3.9,-32,-10.7C-30.2,-17.6,-26.2,-24,-20.4,-29C-14.7,-34.1,-7.4,-37.8,-0.6,-36.9C6.1,-36,12.1,-30.5,19,-25.8Z" width="100%" height="100%" transform="translate(50 50)" stroke-width="0" style="transition: 0.3s;"></path>              </svg>